# xmcd CD database file
#
# Track frame offsets:
#	150
#	21192
#	45828
#	67031
#
# Disc length: 1173 seconds
#
# Revision: 0
# Processed by: cddbd v1.5PL3 Copyright (c) Steve Scherf et al.
# Submitted via: CDex 1.50beta8
#
DISCID=2a049304
DTITLE=野川さくら・名塚佳織・釘宮理恵・新谷良子・福井裕佳梨・徳永愛 - Voices みすてぃっく放送部
DYEAR=2003
DGENRE=Anime
TTITLE0=Voices
TTITLE1=Voices G-BULL style [virginity]
TTITLE2=Voices PSYCHIC LOVER style [HARD&HEAVY DEATH]
TTITLE3=Voices(insrumental)
EXTD=YEAR: 2003
EXTT0=
EXTT1=
EXTT2=
EXTT3=
PLAYORDER=
